# xmcd
#
# Track frame offsets: 
#        150
#        30045
#        69762
#        106876
#        146291
#        177946
#        218642
#
# Disc length: 3570 seconds
#
# Revision: 2
# Processed by: cddbd v1.5.2PL0 Copyright (c) Steve Scherf et al.
# Submitted via: ExactAudioCopy v0.99pb5
#
DISCID=4c0df007
DTITLE=Ralph Moore - Rejuvenate!
DYEAR=1989
DGENRE=Jazz
TTITLE0=Rejuvenate!
TTITLE1=Josephine
TTITLE2=C.R.M.
TTITLE3=Exact Change
TTITLE4=It Might As Well Be Spring
TTITLE5=Song For Soweto
TTITLE6=Melody for Mr. C
EXTD=YEAR: 1989
EXTT0=
EXTT1=
EXTT2=
EXTT3=
EXTT4=
EXTT5=
EXTT6=
PLAYORDER=
